<svg width="109" height="123" viewBox="0 0 109 123" fill="none" xmlns="http://www.w3.org/2000/svg">
<path d="M43.9998 3.99991C41.3256 1.99422 38.1456 0.772847 34.8163 0.472643C31.487 0.17244 28.1399 0.805268 25.15 2.30022C22.1601 3.79517 19.6455 6.09318 17.8881 8.93675C16.1307 11.7803 15.1998 15.0571 15.1998 18.3999V29.1999H7.9998C6.09025 29.1999 4.2589 29.9585 2.90864 31.3087C1.55838 32.659 0.799805 34.4903 0.799805 36.3999V93.9999C0.799805 99.7286 3.07551 105.223 7.1263 109.273C11.1771 113.324 16.6711 115.6 22.3998 115.6H55.0158L47.967 108.4H22.3998C18.5807 108.4 14.918 106.883 12.2175 104.182C9.51694 101.482 7.9998 97.819 7.9998 93.9999V36.3999H51.1998V51.1743C52.4079 50.925 53.6383 50.7996 54.8718 50.7999H58.3998V36.3999H79.9998V51.3543C82.635 52.0239 85.1046 53.2839 87.1998 55.0551V36.3999C87.1998 34.4903 86.4412 32.659 85.091 31.3087C83.7407 29.9585 81.9094 29.1999 79.9998 29.1999H72.7998V18.3999C72.7998 15.0571 71.8689 11.7803 70.1115 8.93675C68.3541 6.09318 65.8396 3.79517 62.8497 2.30022C59.8597 0.805268 56.5126 0.17244 53.1833 0.472643C49.854 0.772847 46.6741 1.99422 43.9998 3.99991ZM22.3998 18.3999C22.3998 15.5356 23.5377 12.7885 25.563 10.7632C27.5884 8.73776 30.3355 7.59991 33.1998 7.59991C36.0641 7.59991 38.8112 8.73776 40.8366 10.7632C42.8619 12.7885 43.9998 15.5356 43.9998 18.3999V29.1999H22.3998V18.3999ZM48.8022 9.41431C50.4287 8.32817 52.3197 7.70411 54.2732 7.60874C56.2267 7.51337 58.1694 7.95027 59.894 8.87281C61.6186 9.79535 63.0603 11.1689 64.0652 12.8468C65.0701 14.5248 65.6005 16.4441 65.5998 18.3999V29.1999H51.1998V18.3999C51.1998 15.1311 50.3286 12.0639 48.8022 9.41431ZM47.1102 97.2327C45.1174 95.1978 44.0009 92.4633 43.9998 89.6151V68.8791C43.9989 67.4508 44.2794 66.0362 44.8253 64.7164C45.3713 63.3965 46.1719 62.1971 47.1816 61.1868C48.1912 60.1765 49.3901 59.375 50.7096 58.8282C52.0291 58.2814 53.4435 57.9999 54.8718 57.9999H75.5574C78.459 57.9999 81.2382 59.1591 83.2758 61.2183L105.646 83.8263C106.662 84.8516 107.463 86.0684 108.004 87.406C108.546 88.7436 108.816 90.1755 108.799 91.6183C108.782 93.0612 108.479 94.4864 107.907 95.8111C107.335 97.1358 106.505 98.3337 105.466 99.3351L84.2478 119.762C82.1849 121.749 79.4199 122.841 76.5554 122.8C73.6909 122.758 70.959 121.586 68.955 119.538L47.1102 97.2327ZM58.3998 77.7999C58.3998 79.2321 58.9687 80.6056 59.9814 81.6183C60.9941 82.631 62.3676 83.1999 63.7998 83.1999C65.232 83.1999 66.6055 82.631 67.6182 81.6183C68.6309 80.6056 69.1998 79.2321 69.1998 77.7999C69.1998 76.3677 68.6309 74.9942 67.6182 73.9815C66.6055 72.9688 65.232 72.3999 63.7998 72.3999C62.3676 72.3999 60.9941 72.9688 59.9814 73.9815C58.9687 74.9942 58.3998 76.3677 58.3998 77.7999Z" fill="white"/>
</svg>
